<svg xmlns="http://www.w3.org/2000/svg" viewBox="0 0 139.72 180.23"><defs><style>.cls-1{isolation:isolate;}.cls-2{fill:#fac9aa;}.cls-3{fill:#dadada;mix-blend-mode:multiply;}.cls-4{fill:#0d3953;}.cls-5{fill:#07283c;}.cls-6{fill:none;stroke:#432918;stroke-linecap:round;stroke-miterlimit:10;stroke-width:2.23px;}.cls-7{fill:#d3ac91;}.cls-8{fill:#fff;}.cls-9{fill:#e2b79b;}.cls-10{fill:#432918;}.cls-11{fill:#5f3a2c;}</style></defs><g class="cls-1"><g id="Слой_2" data-name="Слой 2"><g id="Capa_1" data-name="Capa 1"><path class="cls-2" d="M80.73,143.55H59S2.9,151.19,0,175.33v4.9H139.72v-4.9C136.83,151.19,80.73,143.55,80.73,143.55Z"/><path class="cls-2" d="M111.07,86c-.94,5,.84,9.51,4,10.1s6.43-3,7.37-8-.84-9.51-4-10.09S112,81,111.07,86Z"/><path class="cls-3" d="M116.72,82.88s.21.1.57.24a1.29,1.29,0,0,1,.6.29c.17.18.37.25.51.5a1.76,1.76,0,0,1,.37.72c.14.23.09.61.18.9a8.45,8.45,0,0,1-.21,2.19,10.46,10.46,0,0,1-.67,2.16,6.09,6.09,0,0,1-1,1.61,3,3,0,0,1-.57.41c-.19,0-.41.18-.57.12-.34,0-.6-.07-.6-.07a3.78,3.78,0,0,0,.49.43c.17.16.45.15.77.23a2.36,2.36,0,0,0,1.07-.19,4.59,4.59,0,0,0,1.88-1.72,7.37,7.37,0,0,0,1.08-2.59,6.94,6.94,0,0,0,0-2.87A4,4,0,0,0,120,84a6.11,6.11,0,0,0-.41-.53l-.53-.36a2,2,0,0,0-1-.34,1.55,1.55,0,0,0-.73,0C116.94,82.82,116.72,82.88,116.72,82.88Z"/><path class="cls-2" d="M30.18,86c.94,5-.85,9.51-4,10.1s-6.44-3-7.38-8,.85-9.51,4-10.09S29.24,81,30.18,86Z"/><path class="cls-3" d="M24.53,82.88s-.21.1-.58.24a1.34,1.34,0,0,0-.6.29c-.17.18-.37.25-.5.5a1.76,1.76,0,0,0-.37.72c-.14.23-.1.61-.19.9a8.48,8.48,0,0,0,.22,2.19,9.38,9.38,0,0,0,.67,2.16,6.09,6.09,0,0,0,1,1.61,3.08,3.08,0,0,0,.58.41c.19,0,.41.18.57.12.34,0,.6-.07.6-.07a3.58,3.58,0,0,1-.5.43c-.16.16-.44.15-.77.23a2.34,2.34,0,0,1-1.06-.19A4.62,4.62,0,0,1,21.7,90.7a7.36,7.36,0,0,1-1.07-2.59,6.9,6.9,0,0,1-.15-1.44,6.26,6.26,0,0,1,.15-1.43A3.8,3.8,0,0,1,21.22,84a4.62,4.62,0,0,1,.41-.53l.53-.36a2,2,0,0,1,1-.34,1.55,1.55,0,0,1,.73,0C24.3,82.82,24.53,82.88,24.53,82.88Z"/><rect class="cls-2" x="58.99" y="129.21" width="21.75" height="18.4"/><path class="cls-3" d="M80.73,131.11v-1.9H59v14.13C62.6,135.56,72,131.41,80.73,131.11Z"/><path class="cls-2" d="M116.57,72.05c0,32.55-19.74,58.94-46.69,58.94S23.7,103.64,23.7,71.08c-.49-43.24,19.23-58,46.18-58S118.94,26.35,116.57,72.05Z"/><path class="cls-4" d="M91.82,145.61a24.62,24.62,0,0,1-43.73-.05C31.64,149.15,2.08,158,0,175.33v4.9H139.72v-4.9C137.65,158,108.31,149.22,91.82,145.61Z"/><path class="cls-5" d="M91.82,145.61a24.62,24.62,0,0,1-43.73-.05c-2.44.54-5.17,1.19-8.05,2a32.81,32.81,0,0,0,59.38-.07C96.71,146.73,94.14,146.11,91.82,145.61Z"/><path class="cls-6" d="M37.34,62.65s5.94-10.88,17.15-2.93"/><path class="cls-6" d="M102.38,62.65s-5.94-10.88-17.15-2.93"/><path class="cls-7" d="M75.53,92.29a4.52,4.52,0,0,1,.61.61,6.45,6.45,0,0,1,1.19,2,4.6,4.6,0,0,1,.31,1.67,3.75,3.75,0,0,1-.57,2,4.24,4.24,0,0,1-1.69,1.52,7.17,7.17,0,0,1-2,.66,10.1,10.1,0,0,1-2,.15,13.32,13.32,0,0,1-1.83-.14,15.58,15.58,0,0,1-3.08-.76,14.24,14.24,0,0,1-2.05-.86c-.49-.25-.75-.42-.75-.42s.31,0,.85-.07,1.29-.07,2.19-.07l3,0c.53,0,1.08,0,1.62-.07a13.38,13.38,0,0,0,1.58-.19,4.1,4.1,0,0,0,2.33-1,3.11,3.11,0,0,0,.66-2.15,11.68,11.68,0,0,0-.23-2.06Z"/><path class="cls-8" d="M57.08,109.78c2.72,5,7.58,8.35,13.14,8.35s10.42-3.35,13.14-8.35Z"/><path class="cls-9" d="M57.08,109.78l1.22,1.64c.45.51.92,1,1.37,1.48s1,.87,1.5,1.31,1.11.73,1.64,1.1,1.18.59,1.76.89l1.84.62,1.89.37,1.92.07h.19l.25,0,.51,0,1-.1,1.78-.45,1.76-.73c.54-.33,1.1-.62,1.64-.95s1-.76,1.51-1.17.92-.88,1.36-1.35l1.19-1.5,1-1.62.9,1.51q-6.57,0-13.14-.26c-2.19-.07-4.38-.18-6.57-.3S59.27,110,57.08,109.78Zm0,0c2.19-.21,4.38-.35,6.57-.47s4.38-.23,6.57-.3q6.57-.24,13.14-.26h0a1,1,0,0,1,1,1,1,1,0,0,1-.15.52l-1.13,1.85c-.43.57-.89,1.13-1.35,1.69s-1,1-1.55,1.51-1.16.88-1.74,1.31-1.27.71-1.91,1.06-1.37.5-2,.75-1.47.31-2.2.45l-2.11.11-2.15-.23L66,118.22c-.66-.28-1.32-.56-2-.86s-1.21-.74-1.8-1.13-1.1-.89-1.61-1.36-1-1-1.41-1.55-.8-1.15-1.18-1.72Z"/><path class="cls-10" d="M51.85,73.42c0,2.94-2.06,5.33-4.6,5.33s-4.6-2.39-4.6-5.33,2.06-5.33,4.6-5.33S51.85,70.47,51.85,73.42Z"/><path class="cls-8" d="M45.85,71.28a2.14,2.14,0,1,1-2.14-2.15A2.14,2.14,0,0,1,45.85,71.28Z"/><path class="cls-8" d="M45.74,74.39a1,1,0,1,1-1-1A1,1,0,0,1,45.74,74.39Z"/><path class="cls-11" d="M70.23.05C65,.28,102.38-1.61,110.82,9.89c18,19.64,6.75,68.14,6.75,68.14l-2.16.72-1.16,8.3H112s4.38-27.32-4.14-35.33c0,0,3-23.66-7-25.33,0,0-21.53-2.39-31.1-1.25Z"/><path class="cls-10" d="M88.06,73.42c0,2.94,2.06,5.33,4.6,5.33s4.6-2.39,4.6-5.33-2.06-5.33-4.6-5.33S88.06,70.47,88.06,73.42Z"/><path class="cls-8" d="M94.06,71.28a2.14,2.14,0,1,0,2.14-2.15A2.14,2.14,0,0,0,94.06,71.28Z"/><path class="cls-8" d="M94.17,74.39a1,1,0,1,0,1-1A1,1,0,0,0,94.17,74.39Z"/><path class="cls-11" d="M70.72.07C60.4-.41,42.17,1.36,29.92,10.89,11.92,30.53,22.51,78,22.51,78l2.16.72,1.17,8.3h2.23S23.7,59.73,32.22,51.72c0,0-1.79-21.45,7.62-24.2,0,0,19.5-4.25,29.93-2.38h0Z"/></g></g></g></svg>